<svg xmlns="http://www.w3.org/2000/svg" xmlns:xlink="http://www.w3.org/1999/xlink" width="500" zoomAndPan="magnify" viewBox="0 0 375 374.999991" height="500" preserveAspectRatio="xMidYMid meet" version="1.0"><defs><g/><clipPath id="5826118939"><path d="M 271 99.113281 L 332 99.113281 L 332 141 L 271 141 Z M 271 99.113281 " clip-rule="nonzero"/></clipPath></defs><g clip-path="url(#5826118939)"><path fill="#ffa552" d="M 330.539062 122.640625 C 329.929688 121.359375 328.886719 120.6875 327.6875 120.4375 C 328 120.148438 328.261719 119.800781 328.503906 119.40625 C 329.078125 118.457031 329.328125 117.34375 329.351562 116.242188 C 329.402344 113.976562 328.476562 111.6875 327.0625 109.949219 C 324.367188 106.628906 319.464844 106.664062 315.90625 108.691406 C 316.289062 106.773438 316.039062 104.6875 314.957031 103.082031 C 313.699219 101.1875 311.566406 100.179688 309.375 99.832031 C 304.757812 99.113281 299.007812 100.660156 296.011719 104.410156 C 294.90625 105.777344 294.476562 107.265625 294.609375 108.796875 C 294.25 108.535156 293.863281 108.296875 293.527344 108.089844 C 292.558594 107.527344 291.492188 107.144531 290.375 106.988281 C 288.085938 106.675781 285.582031 107.421875 283.808594 108.90625 C 282.429688 110.058594 281.171875 111.796875 280.691406 113.53125 C 280.488281 114.253906 280.382812 115.128906 280.667969 115.835938 C 280.679688 115.871094 280.703125 115.90625 280.714844 115.953125 C 275.058594 113.582031 268.40625 122.882812 272.53125 127.902344 C 274.183594 129.917969 276.832031 130.683594 279.339844 131.019531 C 279.78125 134.554688 281.734375 137.636719 285.066406 139.144531 C 288.328125 140.632812 292.246094 140.476562 295.289062 138.546875 C 296.644531 137.683594 297.699219 136.542969 298.515625 135.226562 C 301.199219 139.167969 305.851562 141.746094 310.632812 139.695312 C 313.554688 138.4375 316.972656 135.214844 317.5 131.785156 C 320.257812 133.765625 324.488281 133.824219 327.363281 132.195312 C 330.550781 130.382812 332.15625 126.007812 330.539062 122.640625 Z M 328.105469 128.886719 C 326.859375 130.613281 324.714844 131.210938 322.6875 131.128906 C 320.484375 131.03125 318.566406 129.929688 317.261719 128.179688 C 316.972656 127.796875 316.578125 127.664062 316.230469 127.699219 C 315.605469 127.589844 314.875 128.105469 315.113281 128.863281 C 315.738281 130.769531 315.390625 132.457031 314.277344 134.101562 C 313.183594 135.695312 311.53125 137.046875 309.734375 137.765625 C 305.464844 139.480469 301.246094 136.4375 299.328125 132.710938 C 298.898438 131.871094 297.832031 132.230469 297.53125 132.949219 C 295.972656 136.675781 292.113281 138.640625 288.171875 138.101562 C 284.167969 137.5625 281.0625 134.421875 280.789062 130.347656 C 280.765625 129.90625 280.464844 129.640625 280.035156 129.59375 C 276.664062 129.210938 272.316406 127.6875 272.675781 123.566406 C 272.914062 120.785156 275.023438 118.027344 277.550781 116.914062 C 278.992188 116.277344 280.667969 116.253906 281.988281 117.1875 C 282.15625 117.308594 282.371094 117.03125 282.214844 116.890625 C 282.132812 116.816406 282.058594 116.757812 281.976562 116.695312 C 281.953125 116.230469 281.640625 115.808594 281.640625 115.292969 C 281.628906 114.585938 281.902344 113.929688 282.203125 113.304688 C 282.824219 112.023438 283.773438 110.742188 284.933594 109.902344 C 286.445312 108.8125 288.519531 108.257812 290.351562 108.632812 C 291.277344 108.824219 292.125 109.207031 292.90625 109.722656 C 293.78125 110.296875 294.414062 111.148438 295.265625 111.722656 C 295.960938 112.191406 296.667969 111.304688 296.34375 110.644531 C 296.191406 110.320312 295.960938 110.019531 295.699219 109.734375 C 295.507812 106.28125 298.550781 103.574219 301.679688 102.386719 C 305.035156 101.117188 310.296875 100.480469 312.980469 103.476562 C 314.707031 105.394531 314.121094 107.949219 313.808594 110.238281 C 313.808594 110.25 313.808594 110.261719 313.808594 110.273438 C 313.75 110.332031 313.699219 110.378906 313.640625 110.441406 C 313.328125 110.777344 313.734375 111.351562 314.144531 111.089844 C 314.15625 111.074219 314.179688 111.0625 314.191406 111.050781 C 314.503906 111.28125 314.945312 111.269531 315.175781 110.8125 C 315.246094 110.679688 315.304688 110.535156 315.367188 110.394531 C 318.578125 108.796875 323.011719 108.089844 325.46875 111.050781 C 326.546875 112.347656 327.253906 114.097656 327.304688 115.785156 C 327.363281 117.726562 326.367188 118.820312 325.050781 120.078125 C 324.667969 120.4375 324.785156 120.902344 325.109375 121.167969 C 325.183594 121.335938 325.339844 121.46875 325.589844 121.457031 C 329.664062 121.382812 329.964844 126.296875 328.105469 128.886719 Z M 328.105469 128.886719 " fill-opacity="1" fill-rule="nonzero"/></g><g fill="#000000" fill-opacity="1"><g transform="translate(27.622658, 204.114061)"><g><path d="M 0.953125 -79.203125 L 0.953125 -99 L 70.5625 -99 L 70.5625 -79.203125 L 47.046875 -79.203125 L 47.046875 0 L 24.484375 0 L 24.484375 -79.203125 Z M 0.953125 -79.203125 "/></g></g></g><g fill="#ffa552" fill-opacity="1"><g transform="translate(76.735934, 233.968172)"><g><path d="M 23.25 -77.34375 L 23.25 0 L 5.625 0 L 5.625 -77.34375 Z M 23.25 -77.34375 "/></g></g></g><g fill="#000000" fill-opacity="1"><g transform="translate(137.858812, 140.799747)"><g><path d="M -119.625 -35.953125 L 0 -35.953125 L 0 -8.703125 L -119.625 -8.703125 Z M -119.625 -35.953125 "/></g></g></g><g fill="#000000" fill-opacity="1"><g transform="translate(105.610896, 203.994207)"><g><path d="M 5.578125 0 L 5.578125 -47.703125 L 22.046875 -47.703125 L 22.046875 -42.6875 L 22.234375 -42.6875 C 26.503906 -46.96875 31.054688 -49.109375 35.890625 -49.109375 C 39.367188 -49.109375 42.625 -48.394531 45.65625 -46.96875 C 48.695312 -45.539062 50.992188 -43.335938 52.546875 -40.359375 C 57.378906 -46.191406 62.648438 -49.109375 68.359375 -49.109375 C 73.441406 -49.109375 77.8125 -47.679688 81.46875 -44.828125 C 85.125 -41.972656 86.953125 -37.507812 86.953125 -31.4375 L 86.953125 0 L 70.5 0 L 70.5 -26.96875 C 70.5 -29.507812 69.800781 -31.628906 68.40625 -33.328125 C 67.007812 -35.035156 64.914062 -35.890625 62.125 -35.890625 C 59.707031 -35.890625 57.863281 -35.160156 56.59375 -33.703125 C 55.320312 -32.253906 54.625 -30.503906 54.5 -28.453125 L 54.5 0 L 38.03125 0 L 38.03125 -26.96875 C 38.03125 -29.507812 37.332031 -31.628906 35.9375 -33.328125 C 34.550781 -35.035156 32.460938 -35.890625 29.671875 -35.890625 C 27.128906 -35.890625 25.222656 -35.097656 23.953125 -33.515625 C 22.679688 -31.941406 22.046875 -30.070312 22.046875 -27.90625 L 22.046875 0 Z M 5.578125 0 "/></g></g></g><g fill="#000000" fill-opacity="1"><g transform="translate(103.364808, 231.444227)"><g><path d="M 9.09375 -21 C 10.21875 -21 11.3125 -20.835938 12.375 -20.515625 C 13.4375 -20.191406 14.226562 -19.867188 14.75 -19.546875 L 15.5 -19.046875 L 13.59375 -15.296875 C 13.445312 -15.398438 13.238281 -15.53125 12.96875 -15.6875 C 12.707031 -15.84375 12.207031 -16.050781 11.46875 -16.3125 C 10.738281 -16.582031 10.054688 -16.71875 9.421875 -16.71875 C 8.640625 -16.71875 8.035156 -16.550781 7.609375 -16.21875 C 7.179688 -15.882812 6.96875 -15.4375 6.96875 -14.875 C 6.96875 -14.59375 7.066406 -14.328125 7.265625 -14.078125 C 7.472656 -13.835938 7.816406 -13.582031 8.296875 -13.3125 C 8.785156 -13.039062 9.210938 -12.820312 9.578125 -12.65625 C 9.941406 -12.488281 10.507812 -12.238281 11.28125 -11.90625 C 12.613281 -11.332031 13.75 -10.554688 14.6875 -9.578125 C 15.625 -8.609375 16.09375 -7.507812 16.09375 -6.28125 C 16.09375 -5.09375 15.878906 -4.054688 15.453125 -3.171875 C 15.035156 -2.285156 14.453125 -1.59375 13.703125 -1.09375 C 12.960938 -0.59375 12.144531 -0.222656 11.25 0.015625 C 10.351562 0.253906 9.378906 0.375 8.328125 0.375 C 7.421875 0.375 6.535156 0.28125 5.671875 0.09375 C 4.804688 -0.0820312 4.082031 -0.304688 3.5 -0.578125 C 2.914062 -0.859375 2.390625 -1.128906 1.921875 -1.390625 C 1.453125 -1.660156 1.113281 -1.890625 0.90625 -2.078125 L 0.578125 -2.34375 L 2.921875 -6.296875 C 3.117188 -6.128906 3.394531 -5.914062 3.75 -5.65625 C 4.101562 -5.40625 4.722656 -5.0625 5.609375 -4.625 C 6.503906 -4.1875 7.289062 -3.96875 7.96875 -3.96875 C 9.957031 -3.96875 10.953125 -4.644531 10.953125 -6 C 10.953125 -6.28125 10.878906 -6.539062 10.734375 -6.78125 C 10.597656 -7.03125 10.347656 -7.273438 9.984375 -7.515625 C 9.628906 -7.753906 9.3125 -7.941406 9.03125 -8.078125 C 8.757812 -8.222656 8.3125 -8.441406 7.6875 -8.734375 C 7.0625 -9.023438 6.597656 -9.25 6.296875 -9.40625 C 5.046875 -10.019531 4.078125 -10.785156 3.390625 -11.703125 C 2.710938 -12.628906 2.375 -13.628906 2.375 -14.703125 C 2.375 -16.546875 3.054688 -18.054688 4.421875 -19.234375 C 5.785156 -20.410156 7.34375 -21 9.09375 -21 Z M 9.09375 -21 "/></g></g></g><g fill="#000000" fill-opacity="1"><g transform="translate(120.162148, 231.444227)"><g><path d="M 2.25 -12.828125 L 2.25 -17.59375 L 6.671875 -17.59375 L 6.671875 -12.828125 L 9.375 -12.828125 L 9.375 -9.453125 L 6.671875 -9.453125 L 6.671875 -5.375 C 6.671875 -4.1875 7.003906 -3.59375 7.671875 -3.59375 C 7.835938 -3.59375 8.007812 -3.625 8.1875 -3.6875 C 8.375 -3.757812 8.519531 -3.832031 8.625 -3.90625 L 8.78125 -4 L 9.875 -0.421875 C 8.925781 0.109375 7.84375 0.375 6.625 0.375 C 5.789062 0.375 5.070312 0.226562 4.46875 -0.0625 C 3.875 -0.351562 3.421875 -0.742188 3.109375 -1.234375 C 2.804688 -1.722656 2.585938 -2.238281 2.453125 -2.78125 C 2.316406 -3.320312 2.25 -3.90625 2.25 -4.53125 L 2.25 -9.453125 L 0.40625 -9.453125 L 0.40625 -12.828125 Z M 2.25 -12.828125 "/></g></g></g><g fill="#000000" fill-opacity="1"><g transform="translate(130.035583, 231.444227)"><g><path d="M 2.703125 -1.515625 C 1.285156 -2.785156 0.578125 -4.410156 0.578125 -6.390625 C 0.578125 -8.378906 1.316406 -10.007812 2.796875 -11.28125 C 4.285156 -12.5625 6.117188 -13.203125 8.296875 -13.203125 C 10.453125 -13.203125 12.265625 -12.554688 13.734375 -11.265625 C 15.210938 -9.984375 15.953125 -8.359375 15.953125 -6.390625 C 15.953125 -4.429688 15.226562 -2.8125 13.78125 -1.53125 C 12.34375 -0.257812 10.515625 0.375 8.296875 0.375 C 5.992188 0.375 4.128906 -0.253906 2.703125 -1.515625 Z M 6.140625 -8.5625 C 5.566406 -8 5.28125 -7.273438 5.28125 -6.390625 C 5.28125 -5.515625 5.550781 -4.796875 6.09375 -4.234375 C 6.644531 -3.679688 7.375 -3.40625 8.28125 -3.40625 C 9.144531 -3.40625 9.851562 -3.6875 10.40625 -4.25 C 10.96875 -4.8125 11.25 -5.53125 11.25 -6.40625 C 11.25 -7.28125 10.960938 -8 10.390625 -8.5625 C 9.816406 -9.132812 9.113281 -9.421875 8.28125 -9.421875 C 7.425781 -9.421875 6.710938 -9.132812 6.140625 -8.5625 Z M 6.140625 -8.5625 "/></g></g></g><g fill="#000000" fill-opacity="1"><g transform="translate(146.557966, 231.444227)"><g><path d="M 1.5 0 L 1.5 -12.828125 L 5.921875 -12.828125 L 5.921875 -10.96875 L 5.96875 -10.96875 C 6.007812 -11.039062 6.066406 -11.125 6.140625 -11.21875 C 6.210938 -11.320312 6.375 -11.5 6.625 -11.75 C 6.875 -12 7.140625 -12.222656 7.421875 -12.421875 C 7.703125 -12.617188 8.066406 -12.796875 8.515625 -12.953125 C 8.972656 -13.117188 9.4375 -13.203125 9.90625 -13.203125 C 10.382812 -13.203125 10.859375 -13.132812 11.328125 -13 C 11.796875 -12.863281 12.132812 -12.726562 12.34375 -12.59375 L 12.703125 -12.40625 L 10.84375 -8.65625 C 10.300781 -9.113281 9.535156 -9.34375 8.546875 -9.34375 C 8.015625 -9.34375 7.554688 -9.226562 7.171875 -9 C 6.785156 -8.769531 6.515625 -8.488281 6.359375 -8.15625 C 6.203125 -7.820312 6.085938 -7.535156 6.015625 -7.296875 C 5.953125 -7.066406 5.921875 -6.882812 5.921875 -6.75 L 5.921875 0 Z M 1.5 0 "/></g></g></g><g fill="#000000" fill-opacity="1"><g transform="translate(159.00599, 231.444227)"><g><path d="M 14.46875 -5.796875 L 5.171875 -5.796875 C 5.171875 -4.898438 5.460938 -4.234375 6.046875 -3.796875 C 6.628906 -3.367188 7.265625 -3.15625 7.953125 -3.15625 C 8.671875 -3.15625 9.238281 -3.25 9.65625 -3.4375 C 10.070312 -3.625 10.546875 -4.003906 11.078125 -4.578125 L 14.28125 -2.96875 C 12.945312 -0.738281 10.726562 0.375 7.625 0.375 C 5.6875 0.375 4.023438 -0.285156 2.640625 -1.609375 C 1.265625 -2.929688 0.578125 -4.523438 0.578125 -6.390625 C 0.578125 -8.265625 1.265625 -9.867188 2.640625 -11.203125 C 4.023438 -12.535156 5.6875 -13.203125 7.625 -13.203125 C 9.65625 -13.203125 11.304688 -12.613281 12.578125 -11.4375 C 13.859375 -10.257812 14.5 -8.582031 14.5 -6.40625 C 14.5 -6.101562 14.488281 -5.898438 14.46875 -5.796875 Z M 5.296875 -8.25 L 10.171875 -8.25 C 10.078125 -8.914062 9.816406 -9.425781 9.390625 -9.78125 C 8.960938 -10.144531 8.414062 -10.328125 7.75 -10.328125 C 7.019531 -10.328125 6.4375 -10.132812 6 -9.75 C 5.5625 -9.363281 5.328125 -8.863281 5.296875 -8.25 Z M 5.296875 -8.25 "/></g></g></g><g fill="#000000" fill-opacity="1"><g transform="translate(192.720256, 202.989061)"><g><path d="M 7.203125 -99 L 37.921875 -99 C 47.203125 -99 54.601562 -97.019531 60.125 -93.0625 C 65.644531 -89.101562 68.40625 -82.679688 68.40625 -73.796875 C 68.40625 -63.878906 64.285156 -56.800781 56.046875 -52.5625 C 70.117188 -50.082031 77.15625 -41.757812 77.15625 -27.59375 C 77.15625 -19.28125 74.273438 -12.601562 68.515625 -7.5625 C 62.753906 -2.519531 54.835938 0 44.765625 0 L 7.203125 0 Z M 29.765625 -60.234375 L 31.5625 -60.234375 C 36.601562 -60.234375 40.363281 -61.113281 42.84375 -62.875 C 45.320312 -64.632812 46.5625 -67.515625 46.5625 -71.515625 C 46.5625 -78.234375 41.5625 -81.59375 31.5625 -81.59375 L 29.765625 -81.59375 Z M 29.765625 -17.40625 L 36.84375 -17.40625 C 47.882812 -17.40625 53.40625 -21.082031 53.40625 -28.4375 C 53.40625 -32.84375 52.023438 -36.003906 49.265625 -37.921875 C 46.503906 -39.835938 42.363281 -40.796875 36.84375 -40.796875 L 29.765625 -40.796875 Z M 29.765625 -17.40625 "/></g></g></g><g fill="#000000" fill-opacity="1"><g transform="translate(271.142125, 203.994207)"><g><path d="M 21.109375 -47.703125 L 21.109375 -25.015625 C 21.109375 -20.304688 21.820312 -16.957031 23.25 -14.96875 C 24.675781 -12.988281 27.09375 -12 30.5 -12 C 33.914062 -12 36.332031 -12.988281 37.75 -14.96875 C 39.175781 -16.957031 39.890625 -20.304688 39.890625 -25.015625 L 39.890625 -47.703125 L 56.359375 -47.703125 L 56.359375 -21.015625 C 56.359375 -13.078125 54.296875 -7.359375 50.171875 -3.859375 C 46.046875 -0.359375 39.488281 1.390625 30.5 1.390625 C 21.507812 1.390625 14.953125 -0.359375 10.828125 -3.859375 C 6.710938 -7.359375 4.65625 -13.078125 4.65625 -21.015625 L 4.65625 -47.703125 Z M 21.109375 -47.703125 "/></g></g></g><g fill="#000000" fill-opacity="1"><g transform="translate(189.132172, 140.799747)"><g><path d="M -119.625 -35.953125 L 0 -35.953125 L 0 -8.703125 L -119.625 -8.703125 Z M -119.625 -35.953125 "/></g></g></g></svg>